<svg xmlns="http://www.w3.org/2000/svg" width="604" height="586" fill="none"><g opacity=".3"><path fill="url(#a)" d="M604 556v-9l-2-1c-1 4-6 7-10 7l-28 17-12 4-38-20h1c-3-2-5-5-7-9l-2 2h-2v9a6 6 0 0 0 3 5l39 22a18 18 0 0 0 16 0l39-22a6 6 0 0 0 3-5Z" opacity=".3"/><path fill="#0F054C" d="m592 553-28 17-10 3v12c3 0 6 0 8-2l39-22a6 6 0 0 0 3-5v-9l-2-1c-1 4-6 7-10 7Z" opacity=".3"/><path fill="url(#b)" d="m546 574-39-22c-4-2-4-7 0-9l39-22a18 18 0 0 1 16 0l39 22c4 2 4 7 0 9l-39 22a18 18 0 0 1-16 0Z" opacity=".3"/><path fill="#0F054C" d="m546 574-39-22c-4-2-4-7 0-9l39-22a18 18 0 0 1 16 0l39 22c4 2 4 7 0 9l-39 22a18 18 0 0 1-16 0Z" opacity=".3"/></g><path fill="#42E8E0" d="m554 546-7-1-39-23a5 5 0 0 1 0-8l39-23a16 16 0 0 1 14 0l39 23a5 5 0 0 1 0 8l-39 23-7 1Zm0-56-7 2-38 22a4 4 0 0 0 0 8l38 22a15 15 0 0 0 14 0l38-22a4 4 0 0 0 0-8l-38-22-7-2Z"/><path fill="#42E8E0" d="M604 509v-13l-2-1c-1 4-6 7-10 7l-28 16-12 5-38-20 1-1c-3-1-5-5-7-8l-2 2h-2v14a6 6 0 0 0 3 4l39 23a18 18 0 0 0 16 0l39-23a6 6 0 0 0 3-5Z" opacity=".4"/><path fill="url(#c)" d="M604 498v-9l-2-1c-1 4-6 7-10 7l-28 16-12 5-38-20 1-1c-3-1-5-5-7-8l-2 2h-2v9a6 6 0 0 0 3 5l39 22a18 18 0 0 0 16 0l39-22a6 6 0 0 0 3-5Z"/><path fill="#0F054C" d="m592 495-28 16-10 4v12l8-2 39-22a6 6 0 0 0 3-5v-9l-2-1c-1 4-6 7-10 7Z" opacity=".3"/><path fill="url(#d)" d="m546 516-39-22c-4-3-4-7 0-10l39-22a18 18 0 0 1 16 0l39 22c4 3 4 7 0 10l-39 22a18 18 0 0 1-16 0Z"/><path fill="#fff" d="m601 494-39 22a18 18 0 0 1-16 0l-39-22a6 6 0 0 1-3-4l3 5 39 22a18 18 0 0 0 16 0l39-22a5 5 0 0 0 3-5 6 6 0 0 1-3 4Z"/><path fill="url(#e)" d="m535 488-88-52-28 16-54-32v-1l54 32 28-16h1l87 52v1Z"/><g opacity=".3"><path fill="url(#f)" d="M100 555v-9l-2-1c-1 4-6 7-10 8l-28 16-12 4-38-20h1c-3-2-5-5-7-9l-2 2H0v9a6 6 0 0 0 3 5l39 22a18 18 0 0 0 16 0l39-22a6 6 0 0 0 3-5Z" opacity=".3"/><path fill="#0F054C" d="m88 553-28 16-10 3v12c3 0 6 0 8-2l39-22a6 6 0 0 0 3-5v-8l-2-2c-1 4-6 7-10 8Z" opacity=".3"/><path fill="url(#g)" d="M42 573 3 551c-4-2-4-7 0-9l39-22a18 18 0 0 1 16 0l39 22c4 2 4 7 0 9l-39 22a18 18 0 0 1-16 0Z" opacity=".3"/><path fill="#0F054C" d="M42 573 3 551c-4-2-4-7 0-9l39-22a18 18 0 0 1 16 0l39 22c4 2 4 7 0 9l-39 22a18 18 0 0 1-16 0Z" opacity=".3"/></g><path fill="#42E8E0" d="M50 541c-3 0-5 0-7-2L4 517a5 5 0 0 1 0-9l39-22a16 16 0 0 1 14 0l39 22a5 5 0 0 1 0 9l-39 22c-2 2-4 2-7 2Zm-7-2a15 15 0 0 0 14 0l38-22a4 4 0 0 0 0-8l-38-22a15 15 0 0 0-14 0L5 509a4 4 0 0 0 0 8l38 22Z"/><path fill="#42E8E0" d="M100 504v-13l-2-1c-1 4-6 7-10 7l-28 16-12 5-38-20 1-1c-3-1-5-5-7-8l-2 2H0v13a6 6 0 0 0 3 5l39 22a18 18 0 0 0 16 0l39-22a6 6 0 0 0 3-5Z" opacity=".4"/><path fill="url(#h)" d="M100 493v-9l-2-1c-1 4-6 6-10 7l-28 16-12 4-38-19 1-1c-3-1-5-5-7-8l-2 1-2 1v9a6 6 0 0 0 3 4l39 23a18 18 0 0 0 16 0l39-23a6 6 0 0 0 3-4Z"/><path fill="url(#i)" d="M42 511 3 489c-4-3-4-7 0-10l39-22a18 18 0 0 1 16 0l39 22c4 3 4 7 0 10l-39 22a18 18 0 0 1-16 0Z"/><path fill="#5351AF" d="m50 507-7-2-30-17a4 4 0 0 1 0-8l30-17a14 14 0 0 1 14 0l30 17a4 4 0 0 1 0 8l-30 17-7 2Zm-6-2a14 14 0 0 0 12 0l30-18a4 4 0 0 0 0-7l-30-17a14 14 0 0 0-12 0l-30 17a4 4 0 0 0-3 4 4 4 0 0 0 3 3l30 18Z"/><path fill="#fff" d="m97 489-39 22a18 18 0 0 1-16 0L3 489a6 6 0 0 1-3-5 5 5 0 0 0 3 6l39 22a18 18 0 0 0 16 0l39-22a5 5 0 0 0 3-6 6 6 0 0 1-3 5Z"/><path fill="url(#j)" d="m55 503 87-50 28 15 54-30v-1l-54 30-28-15-1 1-87 50h1Z"/><g opacity=".3"><path fill="url(#k)" d="M603 203v-9l-3-1c0 4-5 7-9 7l-28 16-12 5-38-20 1-1c-3-1-5-5-7-8l-2 2h-2v9a6 6 0 0 0 3 5l39 22a18 18 0 0 0 16 0l39-22a6 6 0 0 0 3-5Z" opacity=".3"/><path fill="#0F054C" d="m591 200-28 16-10 4v12l8-2 39-22a6 6 0 0 0 3-5v-9l-2-1h-1c0 4-5 7-9 7Z" opacity=".3"/><path fill="url(#l)" d="m545 221-39-22c-4-3-4-7 0-10l39-22a18 18 0 0 1 16 0l39 22c4 3 4 7 0 10l-39 22a18 18 0 0 1-16 0Z" opacity=".3"/><path fill="#0F054C" d="m545 221-39-22c-4-3-4-7 0-10l39-22a18 18 0 0 1 16 0l39 22c4 3 4 7 0 10l-39 22a18 18 0 0 1-16 0Z" opacity=".3"/></g><path fill="#42E8E0" d="M553 194c-3 1-5 0-7-1l-39-22a5 5 0 0 1 0-9l39-22a16 16 0 0 1 14 0l39 22a5 5 0 0 1 0 9l-39 22c-2 1-5 2-7 1Zm0-55c-2-1-5 0-7 1l-38 22a4 4 0 0 0 0 8l38 22a15 15 0 0 0 14 0l38-22a4 4 0 0 0 0-8l-38-22c-2-1-5-2-7-1Z"/><path fill="#42E8E0" d="M603 158v-14l-3-1c0 4-5 7-9 8l-28 16-12 4-38-20h1l-7-8-2 1h-2v14a6 6 0 0 0 3 5l39 22a18 18 0 0 0 16 0l39-23a6 6 0 0 0 3-4Z" opacity=".4"/><path fill="url(#m)" d="M603 146v-9l-3-1c0 4-5 7-9 7l-28 16-12 5-38-20 1-1c-3-1-5-5-7-8l-2 2h-2v9a6 6 0 0 0 3 5l39 22a18 18 0 0 0 16 0l39-22a6 6 0 0 0 3-5Z"/><path fill="#0F054C" d="m591 143-28 16-10 4v12l8-2 39-22a6 6 0 0 0 3-5v-9l-2-1h-1c0 4-5 7-9 7Z" opacity=".3"/><path fill="url(#n)" d="m514 143 36-21a6 6 0 0 1 6 0l35 21c4 0 9-3 9-7l-40-22-11-3-10 5-32 19c2 3 4 7 7 8Z"/><path fill="#0F054C" d="m553 112-4-2-10 6-32 19c2 3 4 7 7 8l36-21h3v-10Z" opacity=".3"/><path fill="url(#o)" d="m545 164-39-22c-4-3-4-7 0-10l39-22a18 18 0 0 1 16 0l39 22c4 3 4 7 0 10l-39 22a18 18 0 0 1-16 0Zm11-50a6 6 0 0 0-6 0l-38 22a2 2 0 0 0 0 3l38 22a6 6 0 0 0 6 0l38-22a2 2 0 0 0 0-3l-38-22Z"/><path fill="#fff" d="m594 136-38-22a6 6 0 0 0-6 0l-38 22-1 2 1-1 38-22a6 6 0 0 1 6 0l38 22 1 1-1-2ZM600 142l-39 22a18 18 0 0 1-16 0l-39-22a6 6 0 0 1-3-4 5 5 0 0 0 3 5l39 22a18 18 0 0 0 16 0l39-22a5 5 0 0 0 3-5 6 6 0 0 1-3 4Z"/><path fill="url(#p)" d="m546 164-39-23c-3-2-3-6 0-8l39-22a16 16 0 0 1 14 0l38 22c4 2 4 6 0 8l-38 23a16 16 0 0 1-14 0Zm11-51a8 8 0 0 0-8 0l-38 22a2 2 0 0 0 0 4l38 23a8 8 0 0 0 8 0l38-23a2 2 0 0 0 0-4l-38-22Z"/><path fill="#42E8E0" d="M556 114a6 6 0 0 0-6 0l-38 22a2 2 0 0 0 0 3l38 22a6 6 0 0 0 6 0l38-22a2 2 0 0 0 0-3l-38-22Z" opacity=".4"/><path fill="url(#q)" d="m527 182-89 49v32l-1 1-54 31-1-1 55-31v-33l89-49 1 1Z"/><path fill="#758EF5" d="m471 322 15 9v35l-15-9v-35Z" opacity=".5"/><path fill="#758EF5" d="m456 331 15 9v17l-15-9v-17Z" opacity=".2"/><path fill="#758EF5" d="m441 270 15 9v69l-15-8v-70Z" opacity=".5"/><path fill="#758EF5" d="m426 244 15 9v87l-15-9v-87Z" opacity=".2"/><path fill="#758EF5" d="m411 253 15 8v70l-15-9v-69Z" opacity=".5"/><path fill="#758EF5" d="m396 192 15 8v122l-15-8V192Z" opacity=".2"/><path fill="#758EF5" d="m381 200 15 9v105l-15-9V200Z" opacity=".5"/><path fill="#758EF5" d="m366 209 15 9v87l-15-9v-87Z" opacity=".2"/><path fill="#758EF5" d="m350 166 16 8v122l-16-9V166Z" opacity=".5"/><path fill="#758EF5" d="m335 122 15 9v156l-15-8V122Z" opacity=".2"/><path fill="#758EF5" d="m320 131 15 8v140l-15-9V131Z" opacity=".5"/><path fill="#758EF5" d="m305 87 15 9v174l-15-9V87Z" opacity=".2"/><path fill="#758EF5" d="m290 79 15 8v174l-15-8V79Z" opacity=".5"/><path fill="#758EF5" d="m275 35 15 9v209l-15-9V35Z" opacity=".2"/><path fill="#0F054C" d="M290 495c76 0 138-36 138-80s-62-79-138-79-138 35-138 79 62 80 138 80Z" opacity=".4"/><path fill="url(#r)" d="M290 463c87 0 157-40 157-90 0-51-70-91-157-91s-157 40-157 91c0 50 70 90 157 90Z"/><path fill="url(#s)" d="M447 343h-4c-6-17-20-32-42-44-61-36-161-36-222 0a95 95 0 0 0-41 41h-5v20c-1 24 14 49 46 67 61 35 161 35 222 0 31-18 46-41 46-64v-20Z" opacity=".5"/><path fill="url(#t)" d="m443 335-1-2v-13h-8v-1l-7-8v9h-4v-14l-7-6v20h-5v-23l-7-5v28h-5v-30l-7-4v34h-5v-36l-7-3v39h-4v-32h-7v32h-5v-23h-7v23h-5v-14h-7v14h-5v-6h-7v6h-86v-6h-8v6h-4v-14h-7v14h-5v-23h-7v23h-5v-32h-7v32h-4v-39l-7 3v36h-5v-34l-7 4v30h-5v-28l-7 5v23h-5v-20l-7 6v14h-4v-9l-7 8v1h-8v12h-4v34c1 6 4 12 7 18v-21h5v28l7 8v-36h4v41l7 6v-47h5v50l7 4v-54h5v57l7 4v-61h5v63l7 3v-66h4v68l7 3v-71h5v72l7 2v-74h5v75l7 2v-77h5v78l7 1v-79h4v80l7 1v-81h5v81l7 1v-82h5v82l7 1v-83h4v83h8v-83h4v83l7-1v-82h5v82l7-1v-81h5v81l7-1v-80h4v79l8-1v-78h4v77l7-2v-75h5v74l7-2v-72h5v71l7-3v-68h4v66l8-3v-63h4v61l7-4v-57h5v54l7-4v-50h5v46l7-5v-41h4v36l7-8v-28h5v21c3-6 6-12 7-18v-31h-3Z" opacity=".5"/><path fill="url(#u)" d="M290 426c87 0 157-41 157-91s-70-91-157-91-157 41-157 91 70 91 157 91Z"/><path fill="#91A2FA" d="M290 244c-36 0-71 7-100 21l-47 102c8 12 20 23 36 32 10 6 22 11 33 15l78-170ZM334 248l-81 175c20 3 40 3 59 2l74-162c-16-7-34-12-52-15Z" opacity=".3"/><g opacity=".1"><path fill="url(#v)" d="M290 415c77 0 139-36 139-80 0-45-62-81-139-81s-139 36-139 81c0 44 62 80 139 80Z" opacity=".1"/><g fill="#91A2FA" opacity=".1"><path d="m41 335-1-1 242-140h2L41 335ZM46 337l-2-1 243-140 1 1L46 337ZM50 339h-1l242-140h1L50 339ZM54 342l-1-1 242-140 2 1L54 342ZM59 344h-2l242-141 2 1L59 344ZM63 347l-2-1 243-140 1 1L63 347ZM67 349l-1-1 242-140 1 1L67 349ZM71 352l-1-1 242-140 2 1L71 352ZM76 354l-2-1 242-140 2 1L76 354ZM80 357l-2-1 243-140 1 1L80 357ZM84 359l-1-1 242-140 2 1L84 359ZM88 362l-1-1 242-140 2 1L88 362ZM93 364l-2-1 243-140 1 1L93 364ZM97 367l-1-1 242-140 1 1L97 367ZM101 369l-1-1 242-140 2 1-243 140ZM106 372l-2-1 242-140h2L106 372ZM110 374l-2-1 243-140 1 1-242 140ZM114 376h-1l242-140h1L114 376ZM118 379l-1-1 242-140 2 1-243 140ZM123 381h-2l242-141 2 1-242 140ZM127 384l-2-1 243-140 1 1-242 140ZM131 386l-1-1 242-140 1 1-242 140ZM135 389l-1-1 242-140 2 1-243 140ZM140 391l-2-1 243-140 1 1-242 140ZM144 394l-2-1 243-140 1 1-242 140ZM148 396l-1-1 242-140 2 1-243 140ZM153 399l-2-1 242-140 2 1-242 140ZM157 401l-2-1 243-140 1 1-242 140ZM161 404l-1-1 242-140 1 1-242 140ZM165 406l-1-1 242-140 2 1-243 140ZM170 409l-2-1 242-140 2 1-242 140ZM174 411l-2-1 243-140 1 1-242 140ZM178 413h-1l242-140h1L178 413ZM182 416l-1-1 242-140 2 1-243 140ZM187 418h-2l242-140h2L187 418ZM191 421l-2-1 243-140 1 1-242 140ZM195 423l-1-1 242-140 2 1-243 140ZM199 426l-1-1 242-140 2 1-243 140ZM204 428l-2-1 243-140 1 1-242 140ZM208 431l-1-1 242-140 1 1-242 140ZM212 433l-1-1 242-140 2 1-243 140ZM217 436l-2-1 242-140 2 1-242 140ZM221 438l-2-1 243-140 1 1-242 140ZM225 441l-1-1 242-140 1 1-242 140ZM229 443l-1-1 242-140 2 1-243 140ZM234 446l-2-1 242-140 2 1-242 140ZM238 448l-2-1 243-140 1 1-242 140ZM242 450h-1l242-140h1L242 450ZM246 453l-1-1 242-140 2 1-243 140ZM251 455h-2l243-140h1L251 455ZM255 458l-2-1 243-140 1 1-242 140ZM259 460l-1-1 242-140 2 1-243 140ZM264 463l-2-1 242-140 2 1-242 140ZM268 465l-2-1 243-140 1 1-242 140ZM272 468l-1-1 242-140 1 1-242 140ZM276 470l-1-1 242-140 2 1-243 140ZM281 473l-2-1 242-140 2 1-242 140ZM285 475l-2-1 243-140 1 1-242 140ZM289 478l-1-1 242-140 1 1-242 140ZM293 480l-1-1 242-140 2 1-243 140ZM298 483l-2-1 243-140 1 1-242 140Z" opacity=".1"/></g></g><path fill="url(#w)" d="M192 283c54-31 142-31 196 0 26 15 40 35 41 55 1-22-12-44-41-60-54-31-142-31-196 0-29 16-42 38-41 60 1-20 15-40 41-55Z"/><path fill="url(#x)" d="M333 318c-8-1-17 1-24 4 9-8 7-16-7-24l-1-1a59 59 0 0 0-28-8 56 56 0 0 0-21 4l-9-5-13 8 7 4-4 2-4 3-7-4-13 7 7 4-9 5-3 2-1 1-15 8 13 8 15-9 92 54-14 9 12 7 15-9 5-2 9-5 7 4 13-8-5-2-3-2 9-5 7 5 13-8-4-3-4-2c5-4 8-9 8-13 0-7-5-14-17-20l-1-1c-7-4-16-7-25-8Zm-87-3 5-3c10-5 20-6 29 0 6 3 9 6 9 8 1 3-2 6-8 9l-5 3-30-17Zm83 48-35-21 5-3c5-3 10-5 16-5 5 1 11 3 18 7 6 3 9 6 9 9 1 3-2 6-7 10l-6 3Z"/><path fill="url(#y)" d="M209 298v8l7-4-7-4Z"/><path fill="url(#z)" d="M230 285v8l7-4-7-4Z"/><path fill="url(#A)" d="M314 302v9l-6-3 6-6Z"/><path fill="url(#B)" d="M376 335v12l-10-6 10-6Z"/><path fill="url(#C)" d="M333 307c-8 0-17 1-24 4 9-7 7-15-7-23l-1-1a59 59 0 0 0-28-8 56 56 0 0 0-21 4l-9-5-13 7 7 4-4 2-4 3-7-4-13 8 7 4-9 5-3 2h-1l-15 9 13 7 15-8 92 54-14 8 13 8 14-9 5-3 9-5 7 4 13-7-5-3-2-1 8-5 7 4 13-7-4-3-4-2c5-5 8-9 8-14 0-6-5-13-17-20h-1c-7-5-16-8-25-9Zm-87-3 5-2c10-6 20-6 29-1 6 3 9 6 9 9 1 3-2 5-8 9l-5 3-30-18Zm83 48-35-20 5-3c5-3 10-5 16-5 5 0 11 2 18 6 6 4 9 7 10 10 0 3-3 6-8 9l-6 3Z"/><path fill="url(#D)" d="M376 355v10l-13 8v-11l13-7Z"/><path fill="url(#E)" d="M355 367v10l-13 8v-11l13-7Z"/><path fill="url(#F)" d="M306 387v10l-12-7v-11l12 8Z"/><path fill="url(#G)" d="M188 318v10l13 8v-11l-13-7Z"/><path fill="url(#H)" d="M215 327v-10l-14 8v11l14-9Z"/><path fill="url(#I)" d="M215 317v10l84 49 9-5-93-54Z"/><path fill="#91A2FA" d="M292 259c-6 0-11-1-16-4-4-2-7-5-7-9s3-7 7-10c9-5 23-5 32 0 4 3 6 6 6 10s-2 7-6 9c-5 3-11 4-16 4Zm0-25c-5 0-10 1-15 4-4 2-6 5-6 8s2 6 6 8c8 5 22 5 30 0 4-2 6-5 6-8s-2-6-6-8c-5-3-10-4-15-4Z"/><path fill="#97A6FC" d="M301 251a21 21 0 0 1-18 0c-6-3-6-8 0-11a21 21 0 0 1 18 0c5 3 5 8 0 11Z"/><path fill="#91A2FA" d="m346 220-9-6 16-9 9 6-16 9Z"/><path fill="#91A2FA" d="m330 211-12-3 10-12 12 4-10 11Z" opacity=".8"/><path fill="#91A2FA" d="m309 206-13-1 4-13 13 2-4 12Z" opacity=".6"/><path fill="#91A2FA" d="m287 205-13 1-3-12 13-2 3 13Z" opacity=".4"/><path fill="#91A2FA" d="m266 208-12 3-10-11 12-4 10 12Z" opacity=".2"/><path fill="#91A2FA" d="m247 214-10 6-15-9 9-6 16 9Z" opacity=".1"/><path fill="#91A2FA" d="m315 234-3-2 24-13 3 2-24 13Z" opacity=".2"/><path fill="#91A2FA" d="m308 231-4-2 15-17 4 1-15 18Z" opacity=".4"/><path fill="#91A2FA" d="M299 228h-5l6-19h4l-5 19Z" opacity=".6"/><path fill="#91A2FA" d="M289 228h-4l-5-19h4l5 19Z" opacity=".8"/><path fill="#91A2FA" d="m280 229-4 2-15-18 4-1 15 17ZM272 232l-4 2-23-13 3-2 24 13ZM265 237l-2 2-29-9 2-2 29 9ZM262 242l-1 2-33-3 1-2 33 3ZM261 247l1 3-33 3-1-3 33-3ZM263 253l2 2-29 9-2-2 29-9ZM268 258l4 1-24 14-3-2 23-13Z"/><path fill="#97A6FC" d="M384 202c35 24 37 58 6 84l12 11c43-30 42-74-2-104l-16 9Z" opacity=".6"/><path fill="#91A2FA" d="M311 314c-37 3-76-3-104-19l-17-13-21 5 23 17c35 20 85 27 131 22l-12-12Z" opacity=".2"/><path fill="#97A6FC" d="m152 257 21-4c-4-20 8-41 34-56 44-25 114-27 161-4l16-9c-56-28-140-26-192 4-33 19-46 45-40 69ZM279 292l-8-5 106-61 8 4-106 62Z"/><path fill="#97A6FC" d="m291 298-9-4 46-27 9 5-46 26Z" opacity=".8"/><path fill="#97A6FC" d="m303 306-8-5 73-42 8 4-73 43Z" opacity=".6"/><path fill="#97A6FC" d="m316 313-9-5 57-33 9 5-57 33Z" opacity=".2"/><defs><linearGradient id="a" x1="514" x2="593.3" y1="530.1" y2="575.9" gradientUnits="userSpaceOnUse"><stop stop-color="#BCBEFF"/><stop offset=".2" stop-color="#AAADF8"/><stop offset=".7" stop-color="#7C83E5"/><stop offset="1" stop-color="#5761D7"/></linearGradient><linearGradient id="b" x1="504" x2="603.9" y1="547.4" y2="547.4" gradientUnits="userSpaceOnUse"><stop stop-color="#E9E9FD"/><stop offset=".4" stop-color="#D3D2F9"/><stop offset=".7" stop-color="#C5C4F7"/><stop offset="1" stop-color="#C0BFF6"/></linearGradient><linearGradient id="c" x1="52360" x2="54111.4" y1="9528.6" y2="12071" gradientUnits="userSpaceOnUse"><stop stop-color="#BCBEFF"/><stop offset=".2" stop-color="#AAADF8"/><stop offset=".7" stop-color="#7C83E5"/><stop offset="1" stop-color="#5761D7"/></linearGradient><linearGradient id="d" x1="51817" x2="56956.7" y1="14075.8" y2="14075.8" gradientUnits="userSpaceOnUse"><stop stop-color="#E9E9FD"/><stop offset=".4" stop-color="#D3D2F9"/><stop offset=".7" stop-color="#C5C4F7"/><stop offset="1" stop-color="#C0BFF6"/></linearGradient><linearGradient id="e" x1="365" x2="535.1" y1="453.5" y2="453.5" gradientUnits="userSpaceOnUse"><stop stop-color="#5778FF"/><stop offset=".1" stop-color="#567FFF"/><stop offset=".3" stop-color="#5394FF"/><stop offset=".5" stop-color="#4DB6FF"/><stop offset=".7" stop-color="#46E4FF"/><stop offset=".8" stop-color="#42FFFF"/></linearGradient><linearGradient id="f" x1="43049.8" x2="44801.1" y1="11841.4" y2="14383.9" gradientUnits="userSpaceOnUse"><stop stop-color="#BCBEFF"/><stop offset=".2" stop-color="#AAADF8"/><stop offset=".7" stop-color="#7C83E5"/><stop offset="1" stop-color="#5761D7"/></linearGradient><linearGradient id="g" x1="42531.6" x2="47674.8" y1="17439.7" y2="17439.7" gradientUnits="userSpaceOnUse"><stop stop-color="#E9E9FD"/><stop offset=".4" stop-color="#D3D2F9"/><stop offset=".7" stop-color="#C5C4F7"/><stop offset="1" stop-color="#C0BFF6"/></linearGradient><linearGradient id="h" x1="43049.8" x2="44800.6" y1="10492.5" y2="13034.3" gradientUnits="userSpaceOnUse"><stop stop-color="#BCBEFF"/><stop offset=".2" stop-color="#AAADF8"/><stop offset=".7" stop-color="#7C83E5"/><stop offset="1" stop-color="#5761D7"/></linearGradient><linearGradient id="i" x1="42531.6" x2="47674.8" y1="15503.9" y2="15503.9" gradientUnits="userSpaceOnUse"><stop stop-color="#E9E9FD"/><stop offset=".4" stop-color="#D3D2F9"/><stop offset=".7" stop-color="#C5C4F7"/><stop offset="1" stop-color="#C0BFF6"/></linearGradient><linearGradient id="j" x1="224.2" x2="54.1" y1="469.7" y2="470.7" gradientUnits="userSpaceOnUse"><stop stop-color="#5778FF"/><stop offset=".1" stop-color="#567FFF"/><stop offset=".3" stop-color="#5394FF"/><stop offset=".5" stop-color="#4DB6FF"/><stop offset=".7" stop-color="#46E4FF"/><stop offset=".8" stop-color="#42FFFF"/></linearGradient><linearGradient id="k" x1="26610.7" x2="28362.1" y1="5161.9" y2="7702.1" gradientUnits="userSpaceOnUse"><stop stop-color="#BCBEFF"/><stop offset=".2" stop-color="#AAADF8"/><stop offset=".7" stop-color="#7C83E5"/><stop offset="1" stop-color="#5761D7"/></linearGradient><linearGradient id="l" x1="26074.4" x2="31208.5" y1="7900.8" y2="7900.8" gradientUnits="userSpaceOnUse"><stop stop-color="#E9E9FD"/><stop offset=".4" stop-color="#D3D2F9"/><stop offset=".7" stop-color="#C5C4F7"/><stop offset="1" stop-color="#C0BFF6"/></linearGradient><linearGradient id="m" x1="26610.7" x2="28367.1" y1="3948.1" y2="6490.3" gradientUnits="userSpaceOnUse"><stop stop-color="#BCBEFF"/><stop offset=".2" stop-color="#AAADF8"/><stop offset=".7" stop-color="#7C83E5"/><stop offset="1" stop-color="#5761D7"/></linearGradient><linearGradient id="n" x1="517.7" x2="588.4" y1="116.9" y2="157.6" gradientUnits="userSpaceOnUse"><stop offset=".2" stop-color="#5761D7"/><stop offset=".4" stop-color="#7A82E5"/><stop offset=".6" stop-color="#979CF0"/><stop offset=".7" stop-color="#ACAFF8"/><stop offset=".8" stop-color="#B8BAFD"/><stop offset="1" stop-color="#BCBEFF"/></linearGradient><linearGradient id="o" x1="26099.3" x2="31238.3" y1="6150.7" y2="6150.7" gradientUnits="userSpaceOnUse"><stop stop-color="#E9E9FD"/><stop offset=".4" stop-color="#D3D2F9"/><stop offset=".7" stop-color="#C5C4F7"/><stop offset="1" stop-color="#C0BFF6"/></linearGradient><linearGradient id="p" x1="25381.1" x2="30207.3" y1="5963.9" y2="5963.9" gradientUnits="userSpaceOnUse"><stop stop-color="#E9E9FD"/><stop offset=".4" stop-color="#D3D2F9"/><stop offset=".7" stop-color="#C5C4F7"/><stop offset="1" stop-color="#C0BFF6"/></linearGradient><linearGradient id="q" x1="411.8" x2="496.9" y1="311.5" y2="164.2" gradientUnits="userSpaceOnUse"><stop stop-color="#5778FF"/><stop offset=".1" stop-color="#567FFF"/><stop offset=".3" stop-color="#5394FF"/><stop offset=".5" stop-color="#4DB6FF"/><stop offset=".7" stop-color="#46E4FF"/><stop offset=".8" stop-color="#42FFFF"/></linearGradient><linearGradient id="r" x1="99913" x2="118875" y1="-16197.8" y2="14589.1" gradientUnits="userSpaceOnUse"><stop stop-color="#35068C"/><stop offset="0" stop-color="#40DDDA"/><stop offset=".1" stop-color="#3AAEC0"/><stop offset=".2" stop-color="#3484A9"/><stop offset=".3" stop-color="#2F6195"/><stop offset=".3" stop-color="#2B4486"/><stop offset=".4" stop-color="#282E79"/><stop offset=".5" stop-color="#261E71"/><stop offset=".7" stop-color="#24156C"/><stop offset=".8" stop-color="#24126A"/></linearGradient><linearGradient id="s" x1="109.2" x2="420.2" y1="362.7" y2="362.7" gradientUnits="userSpaceOnUse"><stop stop-color="#3671E9"/><stop offset=".1" stop-color="#91A2FA"/><stop offset=".3" stop-color="#8B97F1"/><stop offset=".5" stop-color="#7366C8"/><stop offset=".7" stop-color="#654CB3"/><stop offset=".9" stop-color="#4127A7"/><stop offset="1" stop-color="#260672"/></linearGradient><linearGradient id="t" x1="22161.8" x2="84817.2" y1="45113.4" y2="45113.4" gradientUnits="userSpaceOnUse"><stop stop-color="#42E8E0"/><stop offset=".1" stop-color="#43E3E0"/><stop offset=".3" stop-color="#45D5DF"/><stop offset=".5" stop-color="#49BDDD"/><stop offset=".7" stop-color="#4E9CDB"/><stop offset=".9" stop-color="#5472D8"/><stop offset="1" stop-color="#5761D7"/></linearGradient><linearGradient id="u" x1="102648" x2="121610" y1="-22241.8" y2="8545.2" gradientUnits="userSpaceOnUse"><stop stop-color="#654CB2"/><stop offset="0" stop-color="#40DDDA"/><stop offset=".1" stop-color="#3AAEC0"/><stop offset=".2" stop-color="#3484A9"/><stop offset=".3" stop-color="#2F6195"/><stop offset=".3" stop-color="#2B4486"/><stop offset=".4" stop-color="#282E79"/><stop offset=".5" stop-color="#261E71"/><stop offset=".7" stop-color="#24156C"/><stop offset=".8" stop-color="#24126A"/></linearGradient><linearGradient id="v" x1="265.4" x2="343.3" y1="212.2" y2="600.9" gradientUnits="userSpaceOnUse"><stop stop-color="#42E8E0"/><stop offset="0" stop-color="#40DDDA"/><stop offset=".1" stop-color="#3AAEC0"/><stop offset=".2" stop-color="#3484A9"/><stop offset=".3" stop-color="#2F6195"/><stop offset=".3" stop-color="#2B4486"/><stop offset=".4" stop-color="#282E79"/><stop offset=".5" stop-color="#261E71"/><stop offset=".7" stop-color="#24156C"/><stop offset=".8" stop-color="#24126A"/></linearGradient><linearGradient id="w" x1="150.9" x2="429.1" y1="296" y2="296" gradientUnits="userSpaceOnUse"><stop stop-color="#2B237C"/><stop offset="1" stop-color="#180D5B"/></linearGradient><linearGradient id="x" x1="20001.9" x2="42857.5" y1="28406.6" y2="28406.6" gradientUnits="userSpaceOnUse"><stop stop-color="#2B237C"/><stop offset="1" stop-color="#180D5B"/></linearGradient><linearGradient id="y" x1="1071" x2="1075.1" y1="2185.3" y2="2245" gradientUnits="userSpaceOnUse"><stop stop-color="#2B237D"/><stop offset="0" stop-color="#40DDDA"/><stop offset=".1" stop-color="#3AAEC0"/><stop offset=".2" stop-color="#3484A9"/><stop offset=".3" stop-color="#2F6195"/><stop offset=".3" stop-color="#2B4486"/><stop offset=".4" stop-color="#282E79"/><stop offset=".5" stop-color="#261E71"/><stop offset=".7" stop-color="#24156C"/><stop offset=".8" stop-color="#24126A"/></linearGradient><linearGradient id="z" x1="1199.5" x2="1203.5" y1="2107" y2="2166.7" gradientUnits="userSpaceOnUse"><stop stop-color="#2C247E"/><stop offset="0" stop-color="#40DDDA"/><stop offset=".1" stop-color="#3AAEC0"/><stop offset=".2" stop-color="#3484A9"/><stop offset=".3" stop-color="#2F6195"/><stop offset=".3" stop-color="#2B4486"/><stop offset=".4" stop-color="#282E79"/><stop offset=".5" stop-color="#261E71"/><stop offset=".7" stop-color="#24156C"/><stop offset=".8" stop-color="#24126A"/></linearGradient><linearGradient id="A" x1="1500.2" x2="1507.7" y1="2571.1" y2="2655.3" gradientUnits="userSpaceOnUse"><stop stop-color="#2B237C"/><stop offset="1" stop-color="#180D5B"/></linearGradient><linearGradient id="B" x1="2503.5" x2="2587.3" y1="3407.3" y2="3421.6" gradientUnits="userSpaceOnUse"><stop stop-color="#2B237C"/><stop offset="1" stop-color="#180D5B"/></linearGradient><linearGradient id="C" x1="20982.3" x2="90746.6" y1="26289.2" y2="51600.8" gradientUnits="userSpaceOnUse"><stop stop-color="#654DB3"/><stop offset=".1" stop-color="#40DDDA"/><stop offset=".1" stop-color="#E9E9FE"/><stop offset=".2" stop-color="#654DB3"/><stop offset=".3" stop-color="#2F6195"/><stop offset=".3" stop-color="#2B4486"/><stop offset=".4" stop-color="#282E79"/><stop offset=".5" stop-color="#261E71"/><stop offset=".7" stop-color="#24156C"/><stop offset=".8" stop-color="#24126A"/></linearGradient><linearGradient id="D" x1="3177.8" x2="3316.5" y1="5207.8" y2="5228.8" gradientUnits="userSpaceOnUse"><stop stop-color="#2B237C"/><stop offset="1" stop-color="#180D5B"/></linearGradient><linearGradient id="E" x1="2978.5" x2="3117.2" y1="5362.9" y2="5383.9" gradientUnits="userSpaceOnUse"><stop stop-color="#2B237C"/><stop offset="1" stop-color="#180D5B"/></linearGradient><linearGradient id="F" x1="2520.2" x2="2691" y1="5510.3" y2="5536.1" gradientUnits="userSpaceOnUse"><stop stop-color="#2B237C"/><stop offset="1" stop-color="#180D5B"/></linearGradient><linearGradient id="G" x1="1590.9" x2="1615" y1="4620.3" y2="4912.4" gradientUnits="userSpaceOnUse"><stop stop-color="#2C247D"/><stop offset="0" stop-color="#40DDDA"/><stop offset=".1" stop-color="#3AAEC0"/><stop offset=".2" stop-color="#3484A9"/><stop offset=".3" stop-color="#2F6195"/><stop offset=".3" stop-color="#2B4486"/><stop offset=".4" stop-color="#282E79"/><stop offset=".5" stop-color="#261E71"/><stop offset=".7" stop-color="#24156C"/><stop offset=".8" stop-color="#24126A"/></linearGradient><linearGradient id="H" x1="1942.1" x2="1965" y1="4878.1" y2="5179.3" gradientUnits="userSpaceOnUse"><stop stop-color="#2B237C"/><stop offset="1" stop-color="#180D5B"/></linearGradient><linearGradient id="I" x1="14272.3" x2="14396.3" y1="14027.1" y2="17334.1" gradientUnits="userSpaceOnUse"><stop stop-color="#91A2FA"/><stop offset="0" stop-color="#91A2FA"/><stop offset="0" stop-color="#654DB3"/><stop offset=".1" stop-color="#654DB3"/><stop offset=".2" stop-color="#654DB3"/><stop offset=".3" stop-color="#654CB3"/><stop offset=".3" stop-color="#35068C"/><stop offset=".4" stop-color="#35068C"/><stop offset=".5" stop-color="#35068C"/><stop offset=".7" stop-color="#35068C"/><stop offset=".8" stop-color="#35068C"/></linearGradient></defs></svg>